<svg width="20" height="20" viewBox="0 0 20 20" fill="none" xmlns="http://www.w3.org/2000/svg">
<path d="M1.49785 16.5518H18.5021C19.3294 16.5518 20 15.8812 20 15.0539V13.1035H0V15.0539C0 15.8812 0.670586 16.5518 1.49785 16.5518Z" fill="#73AF00"/>
<path d="M20 4.94609C20 4.11887 19.3294 3.44824 18.5021 3.44824H1.49785C0.670586 3.44824 0 4.11883 0 4.94609V13.1034H20V4.94609Z" fill="#FF4B55"/>
<path d="M1.49785 16.5517H2.75863V3.44824H1.49785C0.670586 3.44824 0 4.11883 0 4.94609V15.0539C0 15.8811 0.670586 16.5517 1.49785 16.5517Z" fill="#F5F5F5"/>
<path d="M2.41389 12.4888H2.29248V12.8305H2.41389V12.4888Z" fill="#FF4B55"/>
<path d="M0.468633 5.68262H0.34668V6.02441H0.468633V5.68262Z" fill="#FF4B55"/>
<path d="M0.345215 6.71076H0.406465V6.88412H0.467168V7.05506H0.649199V6.88412H0.710488V6.71076H0.76998V6.48287H0.710488V6.30951H0.649199V6.14111H0.467168V6.30951H0.406465V6.48287H0.345215V6.71076ZM0.467168 6.53986H0.527285V6.42596H0.589785V6.53986H0.649199V6.65377H0.589785V6.77017H0.527285V6.65377H0.467168V6.53986Z" fill="#FF4B55"/>
<path d="M0.468633 7.16895H0.34668V7.51316H0.468633V7.16895Z" fill="#FF4B55"/>
<path d="M1.44035 5.68262H1.31836V6.02441H1.44035V5.68262Z" fill="#FF4B55"/>
<path d="M1.13664 6.14111V6.30951H1.07594V6.48287H1.01465V6.71076H1.07594V6.88412H1.13664V7.05506H1.31867V6.88412H1.44066V7.05506H1.62332V6.88412H1.68523V6.71076H1.74473V6.48287H1.68523V6.30951H1.62332V6.14111H1.44066V6.30951H1.31867V6.14111H1.13664ZM1.4407 6.53986H1.50199V6.42596H1.56328V6.53986H1.62332V6.65377H1.56328V6.77017H1.50199V6.65377H1.4407V6.53986ZM1.31871 6.65381H1.25867V6.77021H1.19672V6.65381H1.13668V6.5399H1.19672V6.426H1.25867V6.5399H1.31871V6.65381Z" fill="#FF4B55"/>
<path d="M0.468633 11.1743H0.34668V11.4021H0.468633V11.1743Z" fill="#FF4B55"/>
<path d="M0.468633 8.6001H0.34668V8.82791H0.468633V8.6001Z" fill="#FF4B55"/>
<path d="M1.44035 7.16895H1.31836V7.51316H1.44035V7.16895Z" fill="#FF4B55"/>
<path d="M0.468633 12.4888H0.34668V12.8305H0.468633V12.4888Z" fill="#FF4B55"/>
<path d="M0.467168 10.0024V9.99996V9.8291H0.345215V9.99996V10.0024V10.1733H0.467168V10.0024Z" fill="#FF4B55"/>
<path d="M0.468633 15.6372H0.34668V15.979H0.468633V15.6372Z" fill="#FF4B55"/>
<path d="M2.41389 15.6372H2.29248V15.979H2.41389V15.6372Z" fill="#FF4B55"/>
<path d="M0.468633 13.9775H0.34668V14.3193H0.468633V13.9775Z" fill="#FF4B55"/>
<path d="M1.44035 15.6372H1.31836V15.979H1.44035V15.6372Z" fill="#FF4B55"/>
<path d="M2.10814 6.13867V6.30953H2.04811V6.48289H1.98682V6.71078H2.04811V6.88164H2.10814V7.05258H2.29146V6.88164H2.35217V6.71078H2.41221V6.48289H2.35217V6.30953H2.29146V6.13867H2.10814ZM2.29146 6.65383H2.23018V6.76769H2.16885V6.65383H2.10814V6.53742H2.16885V6.42594H2.23014V6.53742H2.29143L2.29146 6.65383Z" fill="#FF4B55"/>
<path d="M2.41389 4.02344H2.29248V4.36523H2.41389V4.02344Z" fill="#FF4B55"/>
<path d="M0.468633 4.02344H0.34668V4.36523H0.468633V4.02344Z" fill="#FF4B55"/>
<path d="M2.41389 7.16895H2.29248V7.51316H2.41389V7.16895Z" fill="#FF4B55"/>
<path d="M2.41389 5.68262H2.29248V6.02441H2.41389V5.68262Z" fill="#FF4B55"/>
<path d="M1.44035 4.02344H1.31836V4.36523H1.44035V4.02344Z" fill="#FF4B55"/>
<path d="M0.953262 14.7778H0.83252V15.0627H0.953262V14.7778Z" fill="#FF4B55"/>
<path d="M1.13664 10.0024V9.99996V9.8291H1.01465V9.99996V10.0024V10.1733H1.13664V10.0024Z" fill="#FF4B55"/>
<path d="M1.80647 3.79297V4.08035H1.6851V4.3652H1.56314V4.65246H1.44053V4.9373H1.31854V4.65246H1.19654V4.3652H1.0758V4.08035H0.954473V3.79297H0.83248V4.08035H0.710488V4.3652H0.589746V4.65246H0.467129V4.9373H0.345215V5.22469H0.467168V5.50953H0.589785V5.7968H0.710527V6.08406H0.83252V6.36891H0.953262V6.08406H1.07588V5.7968H1.19662V5.50953H1.31861V5.22469H1.44061V5.50953H1.56322V5.7968H1.68396V6.08406H1.80654V6.36891H1.92795V6.08406H2.04928V5.7968H2.17123V5.50953H2.29256V5.22469H2.41396V4.9373H2.29318V4.65246H2.17119V4.3652H2.04924V4.08035H1.92791V3.79297H1.80647ZM1.19654 5.22461H1.0758V5.50945H0.953184V5.79672H0.83248V5.50945H0.710488V5.22461H0.589746V4.93723H0.710488V4.65238H0.83248V4.36512H0.953223V4.65238H1.07584V4.93723H1.19658L1.19654 5.22461ZM2.04928 4.65246V4.9373H2.17123V5.22469H2.04928V5.50953H1.92795V5.7968H1.80654V5.50953H1.68518V5.22469H1.56322V4.9373H1.68518V4.65246H1.80654V4.3652H1.92795V4.65246H2.04928Z" fill="#FF4B55"/>
<path d="M1.44035 9.40039H1.31836V9.68523H1.44035V9.40039Z" fill="#FF4B55"/>
<path d="M1.44035 10.3164H1.31836V10.6012H1.44035V10.3164Z" fill="#FF4B55"/>
<path d="M1.62305 9.99996V10.0024V10.1733H1.74441V10.0024V9.99996V9.8291H1.62305V9.99996Z" fill="#FF4B55"/>
<path d="M1.68514 15.637V15.9219H1.8065V16.2067H1.92791V15.9219H2.04924V15.637H2.17119V15.3497H2.29318V15.0625H2.41396V14.7776H2.29256V14.4903H2.17123V14.2054H2.04928V13.9181H1.92795V13.6333H1.80654V13.9181H1.68396V14.2054H1.56322V14.4903H1.44061V14.7776H1.31861V14.4903H1.19662V14.2054H1.07588V13.9181H0.953262V13.6333H0.83252V13.9181H0.710527V14.2054H0.589785V14.4903H0.467168V14.7776H0.345215V15.0625H0.467168V15.3497H0.589785V15.637H0.710527V15.9219H0.83252V16.2067H0.954512V15.9219H1.07588V15.637H1.19662V15.3497H1.31861V15.0625H1.44061V15.3497H1.56322V15.637H1.68514ZM1.19654 15.0624H1.0758V15.3497H0.953184V15.637H0.83248V15.3497H0.710488V15.0624H0.589746V14.7776H0.710488V14.4902H0.83248V14.2054H0.953223V14.4902H1.07584V14.7776H1.19658L1.19654 15.0624ZM1.56318 14.7776H1.68514V14.4903H1.8065V14.2054H1.92791V14.4903H2.04924V14.7776H2.17119V15.0625H2.04924V15.3497H1.92791V15.637H1.8065V15.3497H1.68514V15.0625H1.56318C1.56318 15.0624 1.56318 14.7776 1.56318 14.7776Z" fill="#FF4B55"/>
<path d="M1.50158 9.7424H1.44029V9.82908H1.3183V9.7424H1.25826V9.62842H1.13623V9.79936H1.19627V9.88604H1.25826V9.99994V10.0024V10.1138H1.19627V10.2005H1.13623V10.3715H1.25826V10.2576H1.3183V10.1733H1.44029V10.2576H1.50158V10.3715H1.62295V10.2005H1.56291V10.1138H1.50158V10.0024V9.99994V9.88604H1.56291V9.79936H1.62295V9.62842H1.50158V9.7424Z" fill="#FF4B55"/>
<path d="M1.92805 4.9375H1.80664V5.22488H1.92805V4.9375Z" fill="#FF4B55"/>
<path d="M1.92805 14.7778H1.80664V15.0627H1.92805V14.7778Z" fill="#FF4B55"/>
<path d="M0.649199 13.8611V13.6903H0.710488V13.5194H0.76998V13.2891H0.710488V13.1182H0.649199V12.9473H0.467168V13.1182H0.406465V13.2891H0.345215V13.5194H0.406465V13.6903H0.467168V13.8611H0.649199ZM0.467168 13.3459H0.528457V13.2321H0.589746V13.3459H0.64916V13.4623H0.589746V13.5763H0.528457V13.4623H0.467168V13.3459Z" fill="#FF4B55"/>
<path d="M0.953262 4.9375H0.83252V5.22488H0.953262V4.9375Z" fill="#FF4B55"/>
<path d="M2.41389 13.9775H2.29248V14.3193H2.41389V13.9775Z" fill="#FF4B55"/>
<path d="M1.62332 13.8611V13.6903H1.68523V13.5194H1.74473V13.2891H1.68523V13.1182H1.62332V12.9473H1.44066V13.1182H1.31867V12.9473H1.13664V13.1182H1.07594V13.2891H1.01465V13.5194H1.07594V13.6903H1.13664V13.8611H1.31867V13.6903H1.44066V13.8611H1.62332ZM1.31867 13.4623H1.25863V13.5763H1.19668V13.4623H1.13664V13.3459H1.19668V13.2321H1.25863V13.3459H1.31867V13.4623ZM1.44066 13.3459H1.50195V13.2321H1.56324V13.3459H1.62328V13.4623H1.56324V13.5763H1.50195V13.4623H1.44066V13.3459Z" fill="#FF4B55"/>
<path d="M1.44035 13.9775H1.31836V14.3193H1.44035V13.9775Z" fill="#FF4B55"/>
<path d="M1.44035 12.4888H1.31836V12.8305H1.44035V12.4888Z" fill="#FF4B55"/>
<path d="M2.41389 11.1743H2.29248V11.4021H2.41389V11.1743Z" fill="#FF4B55"/>
<path d="M2.29146 13.8612V13.6903H2.35217V13.5194H2.41221V13.2915H2.35217V13.1182H2.29146V12.9497H2.10814V13.1182H2.04811V13.2915H1.98682V13.5194H2.04811V13.6903H2.10814V13.8612H2.29146ZM2.10814 13.3485H2.16885V13.2346H2.23014V13.3485H2.29143V13.4624H2.23014V13.5788H2.16885V13.4624H2.10814V13.3485Z" fill="#FF4B55"/>
<path d="M2.29248 9.99996V10.0024V10.1733H2.41389V10.0024V9.99996V9.8291H2.29248V9.99996Z" fill="#FF4B55"/>
<path d="M2.41389 8.6001H2.29248V8.82791H2.41389V8.6001Z" fill="#FF4B55"/>
<path d="M2.41396 7.96908H2.29256V7.68424H2.17123V7.39686H2.04928V7.11201H1.92795V6.82475H1.80654V7.11201H1.68396V7.39686H1.56322V7.68424H1.44061V7.91205V7.96904H1.31861V7.6842H1.19662V7.39682H1.07588V7.11197H0.953262V6.82471H0.83252V7.11197H0.710527V7.39682H0.588535V7.6842H0.467168V7.91201V7.969H0.345215V8.25627H0.467168V8.54354H0.588535V8.82838H0.710527V9.11326H0.83252V8.82838H0.953262V8.54354H1.07588V8.25627H0.953262V7.91197H1.07588V7.96897V8.14232H1.19662V8.60057H1.25857V8.88291L1.07592 8.88537V9.11326H0.953301V9.28412H0.832559V9.57139H0.710566V9.28412H0.588574V9.11326H0.467207V8.94232H0.345215V9.45748H0.467168V9.68783H0.588535V9.886H0.710527V10V10.0025V10.114H0.588535V10.3171H0.467168V10.5449H0.345215V11.0601H0.467168V10.8867H0.588535V10.7158H0.710527V10.431H0.83252V10.7158H0.953262V10.8867H1.07588V11.1171L1.25854 11.1195V11.4019H1.19658V11.8601H1.07584V12.031V12.0905H0.953223V11.7437H1.07584V11.4588H0.953223V11.174H0.83248V10.8866H0.710488V11.174H0.588496V11.4588H0.467129V11.7437H0.345215V12.031H0.467168V12.0905V12.3158H0.589785V12.6032H0.710527V12.8905H0.83252V13.1753H0.953262V12.8905H1.07588V12.6032H1.19662V12.3158H1.31861V12.031H1.44061V12.0905V12.3158H1.56322V12.6032H1.68518V12.8905H1.80654V13.1753H1.92795V12.8905H2.04928V12.6032H2.17123V12.3158H2.29256V12.031H2.41396V11.7437H2.29256V11.4588H2.17123V11.174H2.04928V10.8866H1.92795V11.174H1.80654V11.4588H1.68396V11.7437H1.80654V12.031V12.0905H1.68396V12.031V11.8601H1.56322V11.4019H1.54584H1.50193V11.117H1.54584H1.57869H1.62326H1.68518V10.8867H1.80654V10.7158H1.92795V10.431H2.04928V10.7158H2.17123V10.8867H2.29322V11.0601H2.414V10.5449H2.29322V10.317H2.17123V10.1139H2.04928V10.0024V10V9.88611H2.17123V9.68795H2.29322V9.4576H2.414V8.94244H2.29322V9.11338H2.17123V9.28424H2.04928V9.5715H1.92795V9.28424H1.80654V9.11338H1.68518V8.88549H1.62322H1.57865H1.5458H1.50189V8.60064H1.5458H1.56318V8.1424H1.68393V7.96904V7.91205H1.8065V7.96904V8.25631H1.68393V8.54357H1.8065V8.82842H1.92791V9.1133H2.04924V8.82842H2.17119V8.54357H2.29252V8.25631H2.41393L2.41396 7.96908ZM1.68514 9.45756V9.57147V9.68787H1.8065V9.88604H1.92791V10V10.1139H1.8065V10.317H1.68514V10.4309V10.5448H1.50189V10.8148H1.44061V10.9436H1.37994H1.31861V10.8148H1.25857V10.5448H1.07592V10.3169H0.953301V10.1138H0.83252V10.0048V9.9974V9.88592H0.953262V9.68775H1.07588V9.4574H1.25854V9.18748H1.31857V9.05615H1.3799H1.44057V9.18494H1.50186V9.4574H1.68514V9.45756Z" fill="#FF4B55"/>
</svg>
