<svg width="120" height="120" viewBox="0 0 120 120" fill="none" xmlns="http://www.w3.org/2000/svg">
<path d="M79.7899 41.1475C78.6794 40.8453 77.535 40.838 76.4492 41.1154L72.8017 34.7406L69.7466 36.4883L73.394 42.8641C72.6049 43.6588 72.0299 44.6494 71.7278 45.7599C71.2673 47.4527 71.4934 49.2233 72.365 50.7458L74.1951 53.9456C75.0658 55.4681 76.4785 56.5604 78.1713 57.0218C78.7444 57.1774 79.3276 57.2552 79.9062 57.2552C80.4482 57.2552 80.9865 57.1866 81.512 57.0529L82.2298 58.3063C80.2083 60.3516 79.7029 63.5724 81.1989 66.1871L83.0291 69.3869C83.9006 70.9094 85.3124 72.0016 87.0052 72.4622C87.5783 72.6187 88.1615 72.6956 88.7401 72.6956C89.2821 72.6956 89.8214 72.6279 90.3459 72.4933L94.02 78.9157L97.076 77.168L93.4001 70.7437C95.4216 68.6993 95.927 65.4776 94.431 62.8638L92.6009 59.664C91.1049 57.0493 88.0718 55.8527 85.2849 56.5585L84.5671 55.3052C85.3572 54.5096 85.9313 53.5199 86.2334 52.4094C86.6939 50.7166 86.4678 48.945 85.5962 47.4225L83.7661 44.2236C82.8954 42.7002 81.4827 41.608 79.7899 41.1475ZM89.5449 61.4117L91.3759 64.6115C91.8849 65.5014 91.8941 66.5433 91.4931 67.4094L90.4695 65.6213L87.4144 67.3691L88.4389 69.1589C88.2686 69.1425 88.0983 69.1113 87.9299 69.0656C87.1443 68.8522 86.4888 68.345 86.0842 67.6382L84.254 64.4394C83.745 63.5486 83.7349 62.5067 84.1368 61.6406L85.186 63.4744L88.2421 61.7267L87.192 59.892C88.1423 59.9854 89.0358 60.5219 89.5449 61.4117ZM81.6356 50.181L78.5805 51.9287L79.6041 53.7186C79.4338 53.7021 79.2635 53.671 79.095 53.6252C78.3095 53.4109 77.654 52.9047 77.2502 52.1979L75.4201 48.9981C75.0154 48.2913 74.9102 47.4692 75.1244 46.6837C75.1702 46.5152 75.2297 46.3531 75.3011 46.1975L76.3521 48.0341L79.4072 46.2854L78.358 44.4516C79.3083 44.5441 80.2019 45.0806 80.7109 45.9705L82.5411 49.1702C82.9457 49.877 83.051 50.6982 82.8368 51.4847C82.791 51.6531 82.7315 51.8152 82.6601 51.9708L81.6356 50.181Z" fill="#FC996A"/>
<path d="M26.0732 78.9157L29.749 72.4915C30.2782 72.6251 30.8174 72.691 31.353 72.691C33.6336 72.691 35.8528 71.5036 37.0641 69.386L38.8951 66.1871C39.7658 64.6646 39.9919 62.8931 39.5314 61.2003C39.2293 60.0897 38.6544 59.1 37.8652 58.3044L38.5829 57.0511C39.113 57.1848 39.6514 57.2507 40.187 57.2507C42.4675 57.2507 44.6868 56.0632 45.8989 53.9456L47.7291 50.7458C49.225 48.132 48.7197 44.9112 46.6982 42.8659L50.3475 36.4883L47.2924 34.7406L43.6431 41.1182C40.8562 40.4114 37.8231 41.6089 36.3271 44.2227L34.4969 47.4225C33.001 50.0372 33.5063 53.2581 35.5278 55.3024L34.8101 56.5567C33.7242 56.2793 32.5798 56.2857 31.4693 56.5878C29.7765 57.0483 28.3647 58.1406 27.4932 59.6631L25.663 62.8629C24.1671 65.4776 24.6724 68.6984 26.693 70.7437L23.0181 77.1671L26.0732 78.9157ZM37.2563 51.4847C37.043 50.6982 37.1474 49.877 37.5521 49.1702L39.3822 45.9705C39.8912 45.0806 40.7848 44.545 41.736 44.4516L40.6868 46.2863L43.7419 48.0341L44.7911 46.1993C45.1931 47.0663 45.1839 48.1082 44.674 48.9981L42.8438 52.1979C42.3339 53.0878 41.4412 53.6243 40.49 53.7167L41.5126 51.9296L38.4575 50.181L37.434 51.9708C37.3616 51.8152 37.3021 51.6531 37.2563 51.4847ZM28.7181 64.6115L30.5483 61.4117C30.9529 60.705 31.6075 60.1978 32.3931 59.9844C32.5615 59.9387 32.7318 59.9075 32.9021 59.8911L31.852 61.7267L34.9071 63.4744L35.9563 61.6406C36.3582 62.5067 36.3491 63.5486 35.84 64.4394L34.009 67.6382C33.4999 68.5291 32.6064 69.0646 31.6561 69.158L32.6787 67.37L29.6236 65.6223L28.601 67.4103C28.199 66.5433 28.2082 65.5014 28.7181 64.6115Z" fill="#FC996A"/>
<path d="M77.7156 97.4359L85.0609 97.4149L85.0508 93.8947L77.7028 93.9157C76.9255 91.1545 74.384 89.1257 71.3802 89.1257H71.361L67.675 89.1367C64.663 89.1449 62.1233 91.1911 61.3607 93.9624L59.916 93.967C59.6147 92.8876 59.038 91.8988 58.2213 91.0876C56.9817 89.8553 55.3383 89.1769 53.5906 89.1769H53.5714L49.8854 89.187C48.1313 89.1925 46.4843 89.8801 45.2474 91.1243C44.4353 91.9409 43.864 92.9324 43.5692 94.0137L36.1699 94.0347L36.18 97.554L43.5811 97.533C44.3584 100.295 46.9008 102.323 49.9047 102.323H49.923L53.6089 102.312C55.363 102.307 57.011 101.619 58.2479 100.376C59.059 99.559 59.6303 98.5675 59.926 97.4863L61.368 97.4817C61.6692 98.5611 62.2469 99.5499 63.0626 100.362C64.3022 101.594 65.9456 102.272 67.6934 102.272H67.7126L71.3985 102.262C73.1526 102.256 74.8006 101.569 76.0375 100.324C76.8486 99.5087 77.4199 98.5172 77.7156 97.4359ZM55.7521 97.8937C55.1781 98.4714 54.4136 98.79 53.5997 98.7927L49.9138 98.8028H49.9047C48.8829 98.8028 47.9756 98.2974 47.4227 97.522L49.4826 97.5165L49.4725 93.9963L47.4099 94.0027C47.5087 93.8626 47.6195 93.7299 47.7431 93.6063C48.3171 93.0286 49.0816 92.71 49.8955 92.7072L53.5814 92.6962H53.5906C54.4017 92.6962 55.1644 93.0112 55.7393 93.5834C55.8638 93.7061 55.9755 93.8379 56.0753 93.978L53.9595 93.9835L53.9696 97.5037L56.0854 97.4973C55.9865 97.6373 55.8748 97.7701 55.7521 97.8937ZM71.3884 98.7415L67.7025 98.7524H67.6934C66.8822 98.7524 66.1196 98.4375 65.5446 97.8662C65.421 97.7426 65.3084 97.6108 65.2095 97.4716L67.2713 97.4652L67.2612 93.9459L65.2013 93.9514C65.7515 93.1714 66.6597 92.6596 67.6851 92.6559L71.371 92.6459H71.3802C72.4019 92.6459 73.3083 93.1512 73.8622 93.9267L71.7491 93.9331L71.7592 97.4524L73.8741 97.4469C73.7752 97.587 73.6644 97.7188 73.5408 97.8433C72.9668 98.4201 72.2023 98.7396 71.3884 98.7415Z" fill="#FC996A"/>
<path d="M61.8065 49.6417V30.1492L78.6879 20.4025L76.9273 17.3547L60.0468 27.1005L43.1663 17.3547L41.4058 20.4025L58.2872 30.1492V49.6417H61.8065Z" fill="#FC996A"/>
<path d="M112.655 79.0686L95.7789 88.8235L78.8911 79.0842L77.1323 82.1329L94.0201 91.8723L94.0293 111.365L97.5486 111.364L97.5403 91.8713L114.416 82.1155L112.655 79.0686Z" fill="#FC996A"/>
<path d="M25.9753 111.239V91.7468L42.8558 82.001L41.0961 78.9532L24.2156 88.699L7.3324 78.9523L5.57275 82.001L22.4551 91.7468V111.239H25.9753Z" fill="#FC996A"/>
<path d="M39.3523 17.1844L60.0469 5.2359L80.7415 17.1844V39.0866H84.2617V15.152L60.0469 1.17188L35.833 15.152V39.0866H39.3523V17.1844Z" fill="#FC996A"/>
<path d="M60.0466 57.0923L69.7677 51.4801L68.0081 48.4323L60.0466 53.0283L52.0834 48.4305L50.3237 51.4783L60.0466 57.0923Z" fill="#FC996A"/>
<path d="M24.2148 114.627L3.5202 102.678V78.782L22.7444 67.6831L20.9848 64.6344L0 76.7505V104.711L24.2148 118.691L46.5628 105.788L44.8032 102.74L24.2148 114.627Z" fill="#FC996A"/>
<path d="M48.4286 86.8167V76.7505L38.9813 71.2958L37.2217 74.3445L44.9094 78.782V86.8167H48.4286Z" fill="#FC996A"/>
<path d="M119.986 76.8631L99.106 64.8212L97.3472 67.8699L116.468 78.8965L116.48 102.793L95.7908 114.751L75.5595 103.084L73.8008 106.133L95.7927 118.815L120 104.823L119.986 76.8631Z" fill="#FC996A"/>
<path d="M81.1542 71.3397L71.5576 76.8869L71.5622 86.3937L75.0824 86.3919L75.0778 78.9175L82.9156 74.3866L81.1542 71.3397Z" fill="#FC996A"/>
<path d="M49.001 18.414L47.2368 15.368L50.2819 13.6038L52.047 16.6489L49.001 18.414ZM69.8888 17.6917L60.0487 12.0108L59.1524 12.5308L57.3873 9.48486L60.045 7.94495L71.6494 14.6439L69.8888 17.6917ZM54.0767 15.4724L52.3125 12.4265L55.3575 10.6622L57.1218 13.7073L54.0767 15.4724Z" fill="#FC996A"/>
<path d="M102.533 108.143L100.772 105.096L110.609 99.4098L110.607 98.3734L114.127 98.3661L114.133 101.438L102.533 108.143ZM110.602 96.0269L110.595 92.5076L114.114 92.4994L114.122 96.0196L110.602 96.0269ZM110.589 90.1611L110.582 86.6409L114.102 86.6336L114.109 90.1529L110.589 90.1611Z" fill="#FC996A"/>
<path d="M18.7006 108.706L5.8667 101.325V97.6437H9.38599V99.2899L20.4547 105.656L18.7006 108.706ZM5.8667 95.2972V91.777H9.38599V95.2963L5.8667 95.2972ZM9.38599 89.4305H5.8667V85.9103H9.38599V89.4305Z" fill="#FC996A"/>
</svg>
