<svg width="120" height="120" viewBox="0 0 120 120" fill="none" xmlns="http://www.w3.org/2000/svg">
<g clip-path="url(#clip0)">
<path d="M76.1094 7.61739V26.3747H94.2094V22.8591H79.625V7.61739H76.1094Z" fill="#FC996A"/>
<path d="M85.4048 90.5245C85.4048 85.1147 81.0038 80.7137 75.594 80.7137C70.1841 80.7137 65.7832 85.1147 65.7832 90.5245C65.7832 95.9344 70.1841 100.336 75.594 100.336C81.0038 100.336 85.4048 95.9344 85.4048 90.5245ZM75.5931 96.8206C72.1223 96.8206 69.2979 93.9962 69.2979 90.5254C69.2979 87.0538 72.1223 84.2303 75.5931 84.2303C79.0648 84.2303 81.8892 87.0538 81.8892 90.5254C81.8892 93.9962 79.0648 96.8206 75.5931 96.8206Z" fill="#FC996A"/>
<path d="M83.9466 102.023L89.3235 100.502L89.1111 94.9173L92.5635 90.5246L89.1111 86.1328L89.3235 80.5481L83.9466 79.0274L80.8393 74.3802L75.5933 76.3147L70.3483 74.3802L67.241 79.0274L61.8641 80.5481L62.0765 86.1328L58.624 90.5246L62.0765 94.9173L61.8641 100.502L67.241 102.023L70.3483 106.671L75.5933 104.735L80.8393 106.671L83.9466 102.023ZM75.5933 100.988L71.7316 102.414L69.4446 98.9923L65.4822 97.8717L65.6388 93.7601L63.0955 90.5255L65.6388 87.29L65.4822 83.1784L69.4446 82.0587L71.7316 78.6374L75.5933 80.062L79.4559 78.6374L81.7429 82.0587L85.7053 83.1784L85.5488 87.29L88.0921 90.5255L85.5488 93.7601L85.7053 97.8717L81.7429 98.9923L79.4559 102.414L75.5933 100.988Z" fill="#FC996A"/>
<path d="M115.127 93.0548C113.059 93.0548 111.288 94.3485 110.582 96.1694H107.719L101.826 90.2771V87.9361H106.952C107.659 89.7571 109.43 91.0517 111.497 91.0517C114.184 91.0517 116.37 88.8654 116.37 86.1783C116.37 83.4913 114.184 81.3059 111.497 81.3059C109.43 81.3059 107.659 82.6005 106.952 84.4205H101.826V82.0805L107.719 76.1881H110.582C111.288 78.0091 113.059 79.3028 115.127 79.3028C117.813 79.3028 120 77.1165 120 74.4303C120 71.7433 117.813 69.557 115.127 69.557C113.059 69.557 111.288 70.8516 110.582 72.6725H106.263L101.826 77.1082V23.9044L78.6105 0.00100708H18.0734V17.8967L13.6752 13.4986H9.38229C8.67642 11.6868 6.91404 10.3995 4.85594 10.3995C2.17803 10.4004 0 12.5785 0 15.2564C0 17.9334 2.17803 20.1114 4.85594 20.1114C6.91404 20.1114 8.67642 18.8251 9.38229 17.0142H12.2195L18.0734 22.868V25.1825H12.9922C12.2863 23.3716 10.523 22.0844 8.46493 22.0844C5.78794 22.0844 3.60899 24.2624 3.60899 26.9403C3.60899 29.6182 5.78794 31.7962 8.46493 31.7962C10.523 31.7962 12.2863 30.5099 12.9922 28.6981H18.0734V31.0125L12.2195 36.8673H9.38229C8.67642 35.0555 6.91404 33.7692 4.85594 33.7692C2.17803 33.7692 0 35.9472 0 38.6251C0 41.303 2.17803 43.4811 4.85594 43.4811C6.91404 43.4811 8.67642 42.1938 9.38229 40.3829H13.6752L18.0734 35.9848V120.001H101.827V95.2484L106.263 99.6851H110.582C111.289 101.506 113.06 102.801 115.127 102.801C117.814 102.801 120 100.614 120 97.9273C120 95.2402 117.813 93.0548 115.127 93.0548ZM111.497 84.8215C112.246 84.8215 112.855 85.4304 112.855 86.1783C112.855 86.9272 112.246 87.5361 111.497 87.5361C110.749 87.5361 110.14 86.9272 110.14 86.1783C110.14 85.4294 110.749 84.8215 111.497 84.8215ZM115.127 73.0726C115.875 73.0726 116.484 73.6814 116.484 74.4303C116.484 75.1783 115.875 75.7871 115.127 75.7871C114.378 75.7871 113.769 75.1783 113.769 74.4303C113.769 73.6814 114.378 73.0726 115.127 73.0726ZM4.85594 16.5967C4.11711 16.5967 3.51561 15.9952 3.51561 15.2564C3.51561 14.5176 4.11711 13.9161 4.85594 13.9161C5.59477 13.9161 6.19626 14.5166 6.19626 15.2564C6.19626 15.9952 5.59477 16.5967 4.85594 16.5967ZM8.46493 28.2806C7.7261 28.2806 7.12461 27.68 7.12461 26.9403C7.12461 26.2015 7.7261 25.6 8.46493 25.6C9.20376 25.6 9.80526 26.2015 9.80526 26.9403C9.80526 27.68 9.20376 28.2806 8.46493 28.2806ZM4.85594 39.9655C4.11711 39.9655 3.51561 39.3639 3.51561 38.6251C3.51561 37.8863 4.11711 37.2848 4.85594 37.2848C5.59477 37.2848 6.19626 37.8863 6.19626 38.6251C6.19626 39.3639 5.59477 39.9655 4.85594 39.9655ZM98.3108 116.485H21.589V3.51662H77.1237L98.3108 25.3308V116.485ZM115.127 99.285C114.378 99.285 113.769 98.6762 113.769 97.9273C113.769 97.1784 114.378 96.5695 115.127 96.5695C115.875 96.5695 116.484 97.1793 116.484 97.9273C116.484 98.6762 115.875 99.285 115.127 99.285Z" fill="#FC996A"/>
<path d="M35.9272 35.0208H91.0054V38.5364H35.9272V35.0208Z" fill="#FC996A"/>
<path d="M28.896 43.2339H91.0051V46.7496H28.896V43.2339Z" fill="#FC996A"/>
<path d="M28.896 51.4462H91.0051V54.9618H28.896V51.4462Z" fill="#FC996A"/>
<path d="M28.896 59.6594H91.0051V63.175H28.896V59.6594Z" fill="#FC996A"/>
<path d="M28.896 67.8726H60.0001V71.3882H28.896V67.8726Z" fill="#FC996A"/>
<path d="M28.896 103.13H46.6407V106.646H28.896V103.13Z" fill="#FC996A"/>
<path d="M37.8212 89.1174L33.6629 83.9612L27.0977 89.2282L37.26 101.847L53.2634 85.2228L47.1962 79.3726L37.8212 89.1174ZM48.2949 85.3152L37.4953 96.5341L32.0452 89.7665L33.1273 88.8977L37.5896 94.4293L47.2905 84.3466L48.2949 85.3152Z" fill="#FC996A"/>
<path d="M73.1801 22.8589H32.5288V16.0474H73.1801V12.5317H29.0132V26.3745H73.1801V22.8589Z" fill="#FC996A"/>
<path d="M67.4258 109.381L65.9171 107.068L63.1595 106.93L65.2771 103.244L62.2293 101.493L57.2534 110.154L63.9514 110.49L67.6172 116.107L71.9284 108.601L68.8797 106.85L67.4258 109.381Z" fill="#FC996A"/>
<path d="M85.9101 103.244L88.0277 106.93L85.2701 107.068L83.7614 109.381L82.3075 106.85L79.2588 108.601L83.57 116.107L87.2349 110.49L93.9338 110.153L88.9588 101.492L85.9101 103.244Z" fill="#FC996A"/>
<path d="M71.7488 21.2109H49.2964V17.6953H71.7488V21.2109ZM46.9526 21.2109H43.437V17.6953H46.9526V21.2109ZM41.0933 21.2109H37.5776V17.6953H41.0933V21.2109Z" fill="#FC996A"/>
</g>
<defs>
<clipPath id="clip0">
<rect width="120" height="120" fill="white"/>
</clipPath>
</defs>
</svg>
