<svg width="29" height="29" viewBox="0 0 29 29" fill="none" xmlns="http://www.w3.org/2000/svg">
<path d="M14.5 29C10.6269 29 6.9856 27.4918 4.24691 24.7531C1.50823 22.0144 0 18.3731 0 14.5C0 10.6269 1.50828 6.98566 4.24691 4.24691C6.98555 1.50817 10.6269 0 14.5 0C18.3731 0 22.0144 1.50823 24.7531 4.24691C27.4918 6.9856 29 10.6269 29 14.5C29 18.3731 27.4917 22.0143 24.7531 24.7531C22.0145 27.4918 18.3731 29 14.5 29ZM14.5 1.8125C7.50409 1.8125 1.8125 7.50409 1.8125 14.5C1.8125 21.4959 7.50409 27.1875 14.5 27.1875C21.4959 27.1875 27.1875 21.4959 27.1875 14.5C27.1875 7.50409 21.4959 1.8125 14.5 1.8125Z" fill="white"/>
<path d="M17.8001 14.5C18.5542 13.8352 19.0312 12.8631 19.0312 11.7812C19.0312 10.2631 18.0927 8.96066 16.7656 8.42172V7.25C16.7656 6.74952 16.3599 6.34375 15.8594 6.34375C15.3588 6.34375 14.9531 6.74952 14.9531 7.25V8.15625H13.1406V7.25C13.1406 6.74952 12.7349 6.34375 12.2344 6.34375C11.7338 6.34375 11.3281 6.74952 11.3281 7.25V8.15625H9.51562C9.01509 8.15625 8.60938 8.56202 8.60938 9.0625C8.60938 9.56298 9.01509 9.96875 9.51562 9.96875H10.4219V14.5V19.0312H9.51562C9.01509 19.0312 8.60938 19.437 8.60938 19.9375C8.60938 20.438 9.01509 20.8438 9.51562 20.8438H11.3281V21.75C11.3281 22.2505 11.7338 22.6562 12.2344 22.6562C12.7349 22.6562 13.1406 22.2505 13.1406 21.75V20.8438H14.9531V21.75C14.9531 22.2505 15.3588 22.6562 15.8594 22.6562C16.3599 22.6562 16.7656 22.2505 16.7656 21.75V20.5783C18.0927 20.0393 19.0312 18.7369 19.0312 17.2188C19.0312 16.1369 18.5542 15.1648 17.8001 14.5ZM12.2344 9.96875H15.4062C16.4057 9.96875 17.2188 10.7818 17.2188 11.7812C17.2188 12.7807 16.4057 13.5938 15.4062 13.5938H12.2344V9.96875ZM15.4062 19.0312H12.2344V15.4062H15.4062C16.4057 15.4062 17.2188 16.2193 17.2188 17.2188C17.2188 18.2182 16.4057 19.0312 15.4062 19.0312Z" fill="white"/>
</svg>
