<svg width="25" height="25" viewBox="0 0 25 25" fill="none" xmlns="http://www.w3.org/2000/svg">
<path d="M2.20127 5.41724C1.39518 6.58723 0.782586 7.90093 0.411133 9.31291H6.09714L2.20127 5.41724Z" fill="#29337A"/>
<path d="M8.99885 0.500244C7.55863 0.919673 6.22482 1.58895 5.05029 2.46191L8.99885 6.41046V0.500244Z" fill="#29337A"/>
<path d="M5.34424 22.7464C6.44593 23.5173 7.67677 24.1141 8.99913 24.4992V19.092L5.34424 22.7464Z" fill="#29337A"/>
<path d="M0.554688 16.1907C0.967994 17.5294 1.60133 18.7715 2.41074 19.8763L6.0964 16.1907H0.554688Z" fill="#29337A"/>
<path d="M2.40784 5.1272C2.33796 5.22273 2.26909 5.31963 2.20158 5.41753L6.09746 9.3132H0.41145C0.3193 9.66391 0.244091 10.0214 0.182129 10.3838H7.66482L2.40784 5.1272Z" fill="white"/>
<path d="M5.05469 22.5401C5.14979 22.611 5.24754 22.6784 5.3446 22.7464L8.99949 19.0919V24.499C9.35063 24.6017 9.70725 24.6903 10.07 24.7615V17.5249L5.05469 22.5401Z" fill="white"/>
<path d="M0.277344 15.1204C0.354928 15.4831 0.446498 15.8404 0.554852 16.1909H6.09662L2.41096 19.8766C2.81181 20.4243 3.25631 20.9382 3.73928 21.4135L10.0323 15.1204H0.277344Z" fill="white"/>
<path d="M8.99963 0.500312V6.41053L5.05103 2.46218C4.50667 2.86699 3.99784 3.3164 3.52637 3.80291L10.07 10.3465V0.237793C9.70739 0.309466 9.35076 0.398292 8.99963 0.500312Z" fill="white"/>
<path d="M8.99944 16.1533L8.96191 16.1911H8.99944V16.1533Z" fill="#D32030"/>
<path d="M10.0327 15.1204H10.0702V15.0828L10.0327 15.1204Z" fill="#D32030"/>
<path d="M14.8427 10.3835H14.8066V10.4199L14.8427 10.3835Z" fill="#D32030"/>
<path d="M9.0364 9.31323L8.99951 9.27612V9.31323H9.0364Z" fill="#D32030"/>
<path d="M10.0698 10.3467V10.3836H10.1068L10.0698 10.3467Z" fill="#D32030"/>
<path d="M15.877 21.732V24.5341C17.2165 24.1591 18.4655 23.568 19.5826 22.7978L16.5464 19.7617C16.3038 20.6141 16.2151 21.0548 15.877 21.732Z" fill="#252F6C"/>
<path d="M16.5624 5.72484L19.8769 2.41042C18.6861 1.53842 17.3353 0.873888 15.877 0.465332V3.34375C16.2668 4.12434 16.2995 4.71746 16.5624 5.72484Z" fill="#252F6C"/>
<path d="M22.5378 19.9494C23.3725 18.8266 24.023 17.5591 24.4456 16.1909H18.7793L22.5378 19.9494Z" fill="#252F6C"/>
<path d="M24.5886 9.31298C24.2092 7.87119 23.5783 6.53284 22.7468 5.34448L18.7778 9.31298H24.5886Z" fill="#252F6C"/>
<path d="M17.2925 15.3322L18.1514 16.1912L22.263 20.3027C22.3564 20.1859 22.4491 20.0695 22.5384 19.9497L18.7799 16.1912H24.4462C24.5541 15.8408 24.6459 15.4834 24.7232 15.1206H17.3728C17.3608 15.2724 17.3069 15.1814 17.2925 15.3322Z" fill="#E7E7E7"/>
<path d="M16.4327 6.35191L20.1593 2.62498C20.0659 2.55257 19.9724 2.48052 19.877 2.41064L16.5626 5.72507C16.5969 5.85611 16.4008 6.2177 16.4327 6.35191Z" fill="#E7E7E7"/>
<path d="M15.8772 3.11361V0.465303C15.5265 0.36703 15.1694 0.283746 14.8066 0.21582V1.50762C15.205 1.93945 15.562 2.48185 15.8772 3.11361Z" fill="#E7E7E7"/>
<path d="M17.2082 10.3835H24.8186C24.7568 10.0211 24.6814 9.66383 24.5893 9.3129H18.7785L22.7474 5.3444C22.3572 4.78701 21.9236 4.26282 21.4499 3.7771L16.9795 8.2471C17.0999 9.05793 17.1538 9.52882 17.2082 10.3835Z" fill="#E7E7E7"/>
<path d="M16.3662 19.5809L19.5831 22.7982C20.1182 22.4298 20.6221 22.0196 21.0922 21.5744L16.8608 17.3428C16.7258 18.1254 16.5656 18.8813 16.3662 19.5809Z" fill="#E7E7E7"/>
<path d="M14.8071 23.3439V24.7837C15.1699 24.7162 15.5268 24.6325 15.8777 24.5342V21.7322C15.5623 22.3642 15.2052 22.9127 14.8071 23.3439Z" fill="#E7E7E7"/>
<path d="M16.9791 8.24726L21.4491 3.77725C21.0467 3.36395 20.6152 2.9793 20.1589 2.625L16.6465 6.13797C16.8026 6.79047 16.8735 7.53733 16.9791 8.24726Z" fill="#D71F28"/>
<path d="M11.876 0.0154112C12.0842 0.0053306 12.2919 0 12.4997 0C12.2907 0 12.0827 0.0053306 11.876 0.0154112Z" fill="#D32030"/>
<path d="M12.4998 24.9999C12.2919 24.9999 12.0843 24.9942 11.8765 24.9841C12.0831 24.9946 12.2908 24.9999 12.4998 24.9999Z" fill="#D32030"/>
<path d="M12.4995 24.9999C13.2882 24.9999 14.0583 24.9235 14.8063 24.7835V23.3438C14.1497 24.0555 13.3816 24.9999 12.4995 24.9999Z" fill="#D32030"/>
<path d="M24.8179 10.3833H17.3064C17.4059 11.951 17.3939 13.5631 17.2705 15.1201H24.7228C24.9032 14.2748 24.9999 13.3989 24.9999 12.5001C24.9999 11.7781 24.9355 11.0719 24.8179 10.3833Z" fill="#D71F28"/>
<path d="M17.2922 15.332C17.2227 16.0706 16.9807 16.6461 16.8604 17.3428L21.0917 21.5742C21.5104 21.1775 21.9017 20.7531 22.2625 20.3026L18.1511 16.1908L17.2922 15.332Z" fill="#D71F28"/>
<path d="M14.8069 1.60045V0.215916C14.0591 0.0763702 13.2889 0 12.5 0C13.3821 0 14.1502 0.888945 14.8069 1.60045Z" fill="#D32030"/>
<path d="M15.877 22.2727C16.215 21.5954 16.505 20.8156 16.7477 19.9633L15.877 19.0925V22.2727Z" fill="#29337A"/>
<path d="M16.8561 5.43108C16.5928 4.4237 16.2668 3.50789 15.877 2.72729V6.4098L16.8561 5.43108Z" fill="#29337A"/>
<path d="M17.5347 15.5743C17.5489 15.4235 17.5617 15.2721 17.574 15.1201H17.0806L17.5347 15.5743Z" fill="white"/>
<path d="M15.8772 6.40979V2.72708C15.5618 2.09533 15.205 1.55256 14.8066 1.12109V7.9773L16.9566 5.82738C16.9242 5.69317 16.8902 5.5617 16.8563 5.43065L15.8772 6.40979Z" fill="white"/>
<path d="M14.8428 10.3832H17.6099C17.5556 9.52863 17.4692 8.68782 17.3489 7.8772L14.8428 10.3832Z" fill="white"/>
<path d="M14.8071 23.8783C15.2054 23.4465 15.5623 22.9041 15.8777 22.2723V19.0921L16.7485 19.9629C16.9482 19.2628 17.1158 18.515 17.2512 17.7324L14.8072 15.2886L14.8071 23.8783Z" fill="white"/>
<path d="M14.8067 23.8786V15.2889L17.2505 17.7329C17.3707 17.0359 17.4653 16.3132 17.5345 15.5744L17.0804 15.1203H17.5738C17.6971 13.5632 17.7092 11.9511 17.6097 10.3834H14.8426L17.3486 7.87742C17.243 7.16729 17.1124 6.48043 16.9563 5.82772L14.8067 7.97764V1.12143C14.15 0.409718 13.3819 0 12.4998 0C12.2919 0 12.0843 0.0053306 11.8761 0.0154112C11.2613 0.046181 10.6584 0.121812 10.0698 0.237872V10.3465L3.52601 3.80294C3.12394 4.21783 2.74996 4.6599 2.40769 5.12709L6.59369 9.31309L7.66462 10.3836H0.181979C0.0647589 11.072 0 11.7782 0 12.5002C0 13.3992 0.097112 14.2749 0.277086 15.1203H10.0323L3.73918 21.4134C4.15127 21.8182 4.59002 22.1952 5.05447 22.5402L10.0696 17.525V24.7618C10.6581 24.8778 11.2615 24.9534 11.8763 24.9842C12.0842 24.9943 12.2918 25 12.4996 25C13.3819 25 14.15 24.5903 14.8067 23.8786Z" fill="#E51D35"/>
</svg>
