<svg width="11" height="10" viewBox="0 0 11 10" fill="none" xmlns="http://www.w3.org/2000/svg">
<g clip-path="url(#clip0)">
<path d="M2.49823 10V3.25302H0.141027V10H2.49823ZM1.31993 2.33128C2.14193 2.33128 2.65359 1.81319 2.65359 1.16575C2.63827 0.50371 2.14197 0 1.33553 0C0.529228 0 0.00195312 0.50372 0.00195312 1.16575C0.00195312 1.81322 0.513482 2.33128 1.30455 2.33128H1.31986H1.31993ZM3.80294 10H6.16015V6.23216C6.16015 6.03051 6.17546 5.82907 6.23771 5.68492C6.40811 5.28203 6.79597 4.86475 7.44713 4.86475C8.3001 4.86475 8.64134 5.48347 8.64134 6.39047V9.99996H10.9984V6.1313C10.9984 4.05889 9.83548 3.09462 8.28458 3.09462C7.01296 3.09462 6.45464 3.77084 6.14446 4.23141H6.1602V3.25288H3.80299C3.83393 3.88598 3.80299 9.99987 3.80299 9.99987L3.80294 10Z" fill="white"/>
</g>
<defs>
<clipPath id="clip0">
<rect width="11" height="10" fill="white"/>
</clipPath>
</defs>
</svg>
