<svg width="14" height="14" viewBox="0 0 14 14" fill="none" xmlns="http://www.w3.org/2000/svg">
<g clip-path="url(#clip0)">
<path d="M11.3428 1.5127C11.3111 6.92857 6.92857 11.3111 1.5127 11.3428C3.18446 13.4566 5.9215 14.4226 8.54965 13.8265C11.1779 13.2302 13.2302 11.1779 13.8265 8.54965C14.4226 5.9215 13.4566 3.18446 11.3428 1.5127Z" fill="#83D8F4"/>
<path d="M11.3421 1.51195C8.55727 -0.694513 4.56084 -0.463755 2.04854 2.04854C-0.463755 4.56084 -0.694513 8.55727 1.51195 11.3421C6.92782 11.3103 11.3103 6.92782 11.3421 1.51195Z" fill="#91DCF5"/>
<path d="M10.379 2.89693C9.84556 3.13829 9.55116 2.85356 9.17214 3.13829C8.7039 3.49068 8.51569 4.40311 8.93077 5.06922C9.22459 5.53851 9.7514 5.65625 10.3462 5.78613C10.9482 4.55113 11.2853 3.20406 11.3358 1.83105C11.1603 2.29293 10.8193 2.67289 10.379 2.89693Z" fill="#00BB77"/>
<path d="M11.4195 1.57275C11.3977 1.66079 11.3695 1.74706 11.3352 1.83097C11.2848 3.20398 10.9476 4.55105 10.3457 5.78605L10.3794 5.79324C11.2073 5.97426 11.5284 5.59053 12.3103 5.79324C12.6592 5.89329 12.9865 6.05699 13.2758 6.27597C13.6111 6.55257 13.8589 6.92063 13.989 7.33536C13.9944 7.22411 13.9999 7.11285 13.9999 7.00006C14.0018 4.89448 13.0536 2.9005 11.4195 1.57275Z" fill="#00A468"/>
<path d="M6.75894 9.89631C7.23684 10.4249 7.36235 11.318 7.00031 11.8272C6.70591 12.2424 6.30284 12.1 6.03484 12.5513C5.83214 12.9281 5.83214 13.3815 6.03484 13.7582C6.07209 13.8263 6.11652 13.89 6.16743 13.9486C6.4438 13.982 6.72193 13.9989 7.00031 13.9995C9.55279 14.0002 11.903 12.611 13.1332 10.3744C12.6942 10.0808 12.0084 9.69219 11.3449 9.65494C10.6649 9.58847 9.98272 9.75901 9.41396 10.1377C8.702 10.6591 8.56199 11.3977 8.20713 11.3445C7.9561 11.3083 7.81857 10.9028 7.7244 10.6204C7.50885 9.97739 7.62576 9.54228 7.62375 9.18164C7.329 9.41747 7.02105 9.6362 6.70131 9.83668C6.72618 9.86107 6.74668 9.88264 6.75894 9.89631Z" fill="#00A468"/>
<path d="M7.48303 8.68966C7.23448 8.34211 6.77108 8.27693 6.27621 8.20693C5.23838 8.06208 4.83049 8.50863 4.34528 8.20693C3.94988 7.94364 3.75778 7.46362 3.86255 7.0001C4.06538 6.39433 4.95117 6.59951 6.03484 5.79327C6.38487 5.53506 7.21751 4.91479 7.24167 4.10372C7.26583 3.30961 6.49105 3.08275 6.27621 2.17279C6.18287 1.78081 6.35705 0.879344 6.79854 0.0078125C4.2002 0.0812357 1.85679 1.58894 0.712782 3.92293V3.92517C0.557922 4.78267 0.562047 5.66139 0.724803 6.51737C0.872121 7.49014 1.00718 8.37346 1.69026 9.17239C1.98961 9.52477 2.45054 10.0607 3.13846 10.1378C3.90121 10.2224 4.90768 9.73479 5.06938 9.65512C5.28564 9.5131 5.53526 9.4299 5.79348 9.41375C6.13855 9.43579 6.46265 9.58676 6.70131 9.83685C7.02104 9.63638 7.329 9.41764 7.62375 9.18182C7.63188 9.0068 7.5825 8.83391 7.48303 8.68966Z" fill="#00BB77"/>
<path d="M5.06888 1.93141C5.06888 2.99823 3.13795 5.55189 3.13795 5.55189C3.13795 5.55189 1.9336 3.95886 1.42671 2.76417C1.3019 2.50277 1.22742 2.22027 1.20703 1.93141C1.20703 0.865066 2.07161 0.000488281 3.13795 0.000488281C4.20442 0.000488281 5.06888 0.865066 5.06888 1.93141Z" fill="#FF5023"/>
<path d="M3.86225 1.68992C3.86225 2.0898 3.53804 2.41401 3.13816 2.41401C2.73828 2.41401 2.41406 2.0898 2.41406 1.68992C2.41406 1.29004 2.73828 0.96582 3.13816 0.96582C3.53804 0.96582 3.86225 1.29004 3.86225 1.68992Z" fill="#F1F2F2"/>
<path d="M12.3101 8.44801C12.2571 8.90069 12.1099 9.33722 11.878 9.72968C11.4351 10.5442 10.9343 11.3258 10.3792 12.0685C10.3792 12.0685 9.74676 11.231 9.20369 10.3138C9.00357 9.98106 8.82455 9.63598 8.66792 9.28077C8.54311 9.01937 8.46863 8.73687 8.44824 8.44801C8.44824 7.38167 9.31282 6.51709 10.3792 6.51709C11.4456 6.51709 12.3101 7.38167 12.3101 8.44801Z" fill="#FFCD00"/>
<path d="M11.1035 8.20701C11.1035 8.60688 10.7792 8.9311 10.3794 8.9311C9.97949 8.9311 9.65527 8.60688 9.65527 8.20701C9.65527 7.80713 9.97949 7.48291 10.3794 7.48291C10.7792 7.48291 11.1035 7.80713 11.1035 8.20701Z" fill="#F1F2F2"/>
</g>
<defs>
<clipPath id="clip0">
<rect width="14" height="14" fill="white"/>
</clipPath>
</defs>
</svg>
