<svg width="25" height="25" viewBox="0 0 25 25" fill="none" xmlns="http://www.w3.org/2000/svg">
<path d="M12.5 1.5625C6.45996 1.5625 1.5625 6.45996 1.5625 12.5C1.5625 18.54 6.45996 23.4375 12.5 23.4375C18.54 23.4375 23.4375 18.54 23.4375 12.5C23.4375 6.45996 18.54 1.5625 12.5 1.5625ZM16.0181 12.6685L10.686 16.5479C10.6568 16.5689 10.6223 16.5814 10.5865 16.5841C10.5506 16.5868 10.5146 16.5795 10.4826 16.5631C10.4505 16.5467 10.4236 16.5218 10.4048 16.4911C10.386 16.4604 10.376 16.4252 10.376 16.3892V8.63525C10.3759 8.59919 10.3857 8.56379 10.4045 8.53299C10.4233 8.50219 10.4502 8.47718 10.4823 8.46075C10.5144 8.44432 10.5504 8.4371 10.5864 8.43989C10.6224 8.44268 10.6568 8.45537 10.686 8.47656L16.0181 12.3535C16.0433 12.3713 16.0638 12.3949 16.078 12.4223C16.0922 12.4497 16.0996 12.4801 16.0996 12.511C16.0996 12.5418 16.0922 12.5722 16.078 12.5996C16.0638 12.627 16.0433 12.6506 16.0181 12.6685Z" fill="white"/>
</svg>
