<svg width="29" height="29" viewBox="0 0 29 29" fill="none" xmlns="http://www.w3.org/2000/svg">
<path d="M14.5 29C10.6269 29 6.9856 27.4918 4.24691 24.7531C1.50823 22.0144 0 18.3731 0 14.5C0 10.6269 1.50828 6.98566 4.24691 4.24691C6.98555 1.50817 10.6269 0 14.5 0C18.3731 0 22.0144 1.50823 24.7531 4.24691C27.4918 6.9856 29 10.6269 29 14.5C29 18.3731 27.4917 22.0143 24.7531 24.7531C22.0145 27.4918 18.3731 29 14.5 29ZM14.5 1.8125C7.50409 1.8125 1.8125 7.50409 1.8125 14.5C1.8125 21.4959 7.50409 27.1875 14.5 27.1875C21.4959 27.1875 27.1875 21.4959 27.1875 14.5C27.1875 7.50409 21.4959 1.8125 14.5 1.8125Z" fill="white"/>
<path d="M14.5 13.5938C13.2507 13.5938 12.2344 12.5774 12.2344 11.3281C12.2344 10.0789 13.2507 9.0625 14.5 9.0625C15.7493 9.0625 16.7656 10.0789 16.7656 11.3281C16.7656 11.8286 17.1713 12.2344 17.6719 12.2344C18.1724 12.2344 18.5781 11.8286 18.5781 11.3281C18.5781 9.39096 17.22 7.76611 15.4062 7.35275V6.34375C15.4062 5.84327 15.0005 5.4375 14.5 5.4375C13.9995 5.4375 13.5938 5.84327 13.5938 6.34375V7.35275C11.78 7.76611 10.4219 9.39096 10.4219 11.3281C10.4219 13.5768 12.2513 15.4062 14.5 15.4062C15.7493 15.4062 16.7656 16.4226 16.7656 17.6719C16.7656 18.9211 15.7493 19.9375 14.5 19.9375C13.2507 19.9375 12.2344 18.9211 12.2344 17.6719C12.2344 17.1714 11.8287 16.7656 11.3281 16.7656C10.8276 16.7656 10.4219 17.1714 10.4219 17.6719C10.4219 19.609 11.78 21.2339 13.5938 21.6473V22.6562C13.5938 23.1567 13.9995 23.5625 14.5 23.5625C15.0005 23.5625 15.4062 23.1567 15.4062 22.6562V21.6473C17.22 21.2339 18.5781 19.609 18.5781 17.6719C18.5781 15.4232 16.7487 13.5938 14.5 13.5938Z" fill="white"/>
</svg>
