<svg width="402" height="397" viewBox="0 0 402 397" fill="none" xmlns="http://www.w3.org/2000/svg">
<path d="M159.04 32.3998C133.592 40.0798 110.374 53.7932 91.3627 72.3738C72.351 90.9544 58.1073 113.853 49.8427 139.121C41.578 164.39 39.537 191.282 43.893 217.511C48.249 243.739 58.8734 268.529 74.8625 289.771C90.8517 311.013 111.733 328.08 135.73 339.52C159.728 350.96 186.132 356.435 212.697 355.479C239.263 354.523 265.204 347.165 288.315 334.031C311.426 320.896 331.023 302.374 345.44 280.038L293.429 246.451C284.419 260.411 272.17 271.988 257.726 280.197C243.282 288.406 227.069 293.005 210.465 293.602C193.862 294.199 177.359 290.777 162.361 283.627C147.362 276.477 134.312 265.811 124.318 252.534C114.325 239.258 107.685 223.765 104.962 207.372C102.24 190.979 103.516 174.172 108.681 158.378C113.846 142.585 122.749 128.274 134.631 116.661C146.513 105.048 161.024 96.4774 176.929 91.6774L159.04 32.3998Z" fill="#FC996A" stroke="white"/>
<path d="M345.44 280.037C367.713 245.53 376.326 203.956 369.596 163.435C362.866 122.914 341.277 86.355 309.045 60.8971L270.682 109.488C290.828 125.399 304.321 148.249 308.527 173.574C312.733 198.9 307.35 224.883 293.429 246.45L345.44 280.037Z" fill="#3A42BC" stroke="white"/>
<path d="M309.046 60.8984C280.819 38.6039 246.086 26.1382 210.128 25.3969L208.859 87.3009C231.333 87.7642 253.041 95.5552 270.683 109.489L309.046 60.8984Z" fill="#5861CD" stroke="white"/>
<path d="M210.127 25.3965C192.836 25.04 175.597 27.4033 159.04 32.3999L176.929 91.6776C187.277 88.5547 198.052 87.0776 208.859 87.3004L210.127 25.3965Z" fill="#9B7FD7" stroke="white"/>
</svg>
