<svg width="413" height="427" viewBox="0 0 413 427" fill="none" xmlns="http://www.w3.org/2000/svg">
<path d="M367.969 136.279C354.264 107.604 332.522 83.5291 305.388 66.9817C278.254 50.4343 246.896 42.1277 215.128 43.0719L216.955 104.545C236.81 103.955 256.409 109.146 273.368 119.488C290.327 129.83 303.915 144.877 312.481 162.799L367.969 136.279Z" fill="#5861CD" stroke="white"/>
<path d="M215.128 43.0723C184.475 43.9834 154.691 53.4709 129.159 70.4575C103.627 87.4441 83.3685 111.249 70.6849 139.17C58.0013 167.091 53.4001 198.008 57.4041 228.412C61.408 258.816 73.8565 287.489 93.3361 311.174C112.816 334.859 138.546 352.608 167.605 362.405C196.665 372.203 227.889 373.656 257.733 366.6C287.577 359.545 314.845 344.262 336.44 322.489C358.036 300.716 373.094 273.324 379.904 243.423L319.94 229.764C315.684 248.452 306.272 265.572 292.775 279.181C279.278 292.789 262.236 302.34 243.583 306.75C224.931 311.16 205.416 310.252 187.253 304.128C169.091 298.005 153.01 286.912 140.835 272.109C128.66 257.305 120.88 239.385 118.378 220.383C115.875 201.38 118.751 182.057 126.678 164.606C134.605 147.156 147.267 132.278 163.224 121.661C179.182 111.044 197.797 105.115 216.955 104.545L215.128 43.0723Z" fill="#FC996A" stroke="white"/>
<path d="M379.905 243.423C388.114 207.384 383.908 169.628 367.969 136.279L312.481 162.8C322.442 183.643 325.071 207.24 319.94 229.764L379.905 243.423Z" fill="#9B7FD7" stroke="white"/>
</svg>
