<svg width="168" height="42" viewBox="0 0 168 42" fill="none" xmlns="http://www.w3.org/2000/svg">
<path d="M12.628 17.842C11.594 18.612 10.384 18.964 9.284 18.964C6.512 18.964 4.62 17.028 4.62 14.3C4.62 11.264 6.556 9.636 8.932 9.636C10.384 9.636 11.242 10.076 12.078 10.582L13.64 7.942C12.716 7.04 10.978 6.336 8.932 6.336C3.63 6.336 0.88 9.878 0.88 14.3C0.88 19.096 4.18 22.264 8.954 22.264C11.044 22.264 13.046 21.516 13.97 20.482L12.628 17.842ZM19.916 22V16.61H21.214L24.954 22H29.222L24.734 15.928C25.57 15.51 27.33 14.344 27.33 11.484C27.33 8.646 25.834 6.556 21.632 6.556C21.192 6.556 17.254 6.6 16.396 6.6V22H19.916ZM21.456 9.856C23.15 9.856 23.59 10.67 23.59 11.528C23.59 12.826 22.534 13.31 21.192 13.31H19.916V9.9C20.642 9.878 20.928 9.856 21.456 9.856ZM42.9407 6.6H39.1347L35.8787 12.43L32.5787 6.6H28.5527L33.9647 15.73V22H37.4847V15.73L42.9407 6.6ZM48.4473 22V16.764C48.9973 16.83 49.8333 16.83 50.1633 16.83C53.7273 16.83 55.8613 14.41 55.8613 11.66C55.8613 8.998 54.3213 6.556 49.6353 6.556C48.4473 6.556 45.7853 6.6 44.9273 6.6V22H48.4473ZM49.9873 9.856C51.2413 9.856 52.1213 10.274 52.1213 11.638C52.1213 13.134 50.9773 13.53 50.0533 13.53C49.5473 13.53 48.9533 13.486 48.4473 13.42V9.9C49.1733 9.878 49.5253 9.856 49.9873 9.856ZM56.7024 9.9H61.3224V22H64.8424V9.9H69.4624V6.6H56.7024V9.9ZM69.8878 14.3C69.8878 19.206 73.3858 22.264 78.0718 22.264C82.7578 22.264 86.2558 18.964 86.2558 14.3C86.2558 9.394 82.7578 6.336 78.0718 6.336C73.1658 6.336 69.8878 9.834 69.8878 14.3ZM73.6278 14.3C73.6278 11.484 75.5198 9.636 78.0718 9.636C80.5578 9.636 82.5158 11.484 82.5158 14.3C82.5158 16.896 80.9978 18.964 78.0718 18.964C75.6078 18.964 73.6278 16.94 73.6278 14.3ZM92.6406 22V16.61H93.9386L97.6786 22H101.947L97.4586 15.928C98.2946 15.51 100.055 14.344 100.055 11.484C100.055 8.646 98.5586 6.556 94.3566 6.556C93.9166 6.556 89.9786 6.6 89.1206 6.6V22H92.6406ZM94.1806 9.856C95.8746 9.856 96.3146 10.67 96.3146 11.528C96.3146 12.826 95.2586 13.31 93.9166 13.31H92.6406V9.9C93.3666 9.878 93.6526 9.856 94.1806 9.856ZM108.133 23.342C108.133 25.608 110.399 26.576 113.281 26.576C116.163 26.576 118.429 25.564 118.429 23.342C118.429 21.12 116.163 20.108 113.281 20.108H113.171C113.083 19.954 113.039 19.778 113.039 19.602C113.039 19.492 113.039 19.36 113.083 19.228H113.259C115.811 19.228 117.461 17.556 117.461 15.576C117.461 15.136 117.373 14.696 117.219 14.3L118.869 13.926L118.781 11.902L115.789 12.562C115.107 12.122 114.249 11.858 113.259 11.858C110.641 11.858 109.035 13.596 109.035 15.576C109.035 17.028 109.893 18.304 111.389 18.898C111.235 19.096 111.169 19.36 111.169 19.602C111.169 19.822 111.235 20.086 111.345 20.284C109.453 20.68 108.133 21.692 108.133 23.342ZM110.487 23.342C110.487 22.616 111.477 22.132 113.281 22.132C115.107 22.132 116.053 22.616 116.053 23.342C116.053 24.134 114.997 24.552 113.281 24.552C111.565 24.552 110.487 24.112 110.487 23.342ZM111.411 15.576C111.411 14.674 112.115 13.904 113.259 13.904C114.447 13.904 115.107 14.652 115.107 15.576C115.107 16.566 114.337 17.182 113.259 17.182C112.115 17.182 111.411 16.5 111.411 15.576ZM129.364 12.1H126.834V18.678C126.262 19.426 125.448 19.888 124.612 19.888C123.226 19.888 122.72 18.942 122.72 17.622V12.1H120.19V18.15C120.19 20.988 121.73 22.242 123.666 22.242C125.206 22.242 126.24 21.516 126.834 20.79V22H129.364V12.1ZM132.183 22H134.713V15.356C134.999 14.784 135.461 14.3 136.341 14.3C136.869 14.3 137.133 14.388 137.617 14.674L138.519 12.298C138.189 12.056 137.793 11.924 136.979 11.924C135.791 11.924 135.175 12.43 134.713 13.068V12.1H132.183V22ZM148.915 12.1H146.385V18.678C145.813 19.426 144.999 19.888 144.163 19.888C142.777 19.888 142.271 18.942 142.271 17.622V12.1H139.741V18.15C139.741 20.988 141.281 22.242 143.217 22.242C144.757 22.242 145.791 21.516 146.385 20.79V22H148.915V12.1Z" fill="#4B4C6E"/>
<path d="M102.823 19.888C102.823 21.054 103.659 22.132 105.067 22.132C106.299 22.132 107.135 21.054 107.135 19.888C107.135 18.898 106.299 17.82 105.067 17.82C103.659 17.82 102.823 18.898 102.823 19.888Z" fill="#F54B31"/>
</svg>
